<svg width="240" height="240" viewBox="0 0 240 240" xmlns="http://www.w3.org/2000/svg">
  <defs>
    <radialGradient id="glow" cx="50%" cy="40%" r="45%">
      <stop offset="0%" stop-color="#ffb347" stop-opacity="0.9"/>
      <stop offset="70%" stop-color="#ff5c00" stop-opacity="0.4"/>
      <stop offset="100%" stop-color="#000000" stop-opacity="0.0"/>
    </radialGradient>
    <linearGradient id="fire" x1="0%" y1="0%" x2="100%" y2="100%">
      <stop offset="0%" stop-color="#fff1a5"/>
      <stop offset="30%" stop-color="#ff9b21"/>
      <stop offset="60%" stop-color="#ff4a00"/>
      <stop offset="100%" stop-color="#8b0000"/>
    </linearGradient>
  </defs>
  <rect width="240" height="240" rx="30" fill="#09070e"/>
  <circle cx="120" cy="120" r="88" fill="url(#glow)"/>
  <path d="M58 150c18-44 68-74 106-66 26 6 42 28 44 56-14 20-36 40-66 48-26 6-56 2-84-38Z" fill="url(#fire)" opacity="0.95"/>
  <path d="M76 128c16-36 50-56 86-54 24 2 40 16 48 36-22 10-48 14-72 12-30-2-48-10-62-14Z" fill="#ffc958"/>
  <path d="M80 118c18-18 46-26 78-18 16 4 28 14 34 30-18 4-34 4-52 0-24-6-42-8-60-12Z" fill="#ffd57f"/>
  <path d="M94 140c10-10 24-16 38-16 18 0 32 8 44 18-14 8-30 12-44 10-16-2-28-6-38-12Z" fill="#d44b00" opacity="0.85"/>
  <path d="M80 96c10-18 30-28 54-28 24 0 42 12 54 30-16-6-30-8-46-6-20 2-34 10-48 14Z" fill="#ffa744"/>
  <path d="M128 78c8-12 24-16 36-16s20 4 24 14c-10-4-22-4-36 0-12 4-20 8-24 12Z" fill="#ffecb4" opacity="0.9"/>
  <path d="M74 120c8 0 22-2 34-6 10-4 18-10 24-14 0 0 4-8 8-12 6-6 16-10 26-10" stroke="#ffea95" stroke-width="4" fill="none" stroke-linecap="round"/>
  <ellipse cx="92" cy="116" rx="10" ry="14" fill="#120700"/>
  <ellipse cx="148" cy="116" rx="10" ry="14" fill="#120700"/>
  <circle cx="91" cy="114" r="4" fill="#ffecb4"/>
  <circle cx="147" cy="114" r="4" fill="#ffecb4"/>
  <path d="M102 146c10 8 28 8 38 0" stroke="#fff2d0" stroke-width="5" stroke-linecap="round"/>
  <path d="M112 162c10 12 22 18 32 18 10 0 22-6 30-16" stroke="#ff9f43" stroke-width="8" stroke-linecap="round" opacity="0.9"/>
  <path d="M74 156c14 10 32 18 50 20 16 0 34-6 48-18" stroke="#ff6e1a" stroke-width="6" stroke-linecap="round"/>
  <path d="M78 84c8-8 30-18 50-18" stroke="#fcd37f" stroke-width="5" stroke-linecap="round" opacity="0.85"/>
  <path d="M166 84c-8-8-30-18-50-18" stroke="#fcd37f" stroke-width="5" stroke-linecap="round" opacity="0.85"/>
  <path d="M108 100c14-10 28-12 44-8" stroke="#ffd86b" stroke-width="4" stroke-linecap="round"/>
  <path d="M118 148c0 10-14 14-22 12" stroke="#ffb46b" stroke-width="4" stroke-linecap="round"/>
  <path d="M142 148c0 10 14 14 22 12" stroke="#ffb46b" stroke-width="4" stroke-linecap="round"/>
  <path d="M120 34c20 16 44 26 68 18-22 18-38 28-68 30-28-2-48-16-64-34 20 8 40 8 64-14Z" fill="#ff7f2a" opacity="0.8"/>
</svg>
