<svg width="240" height="240" viewBox="0 0 240 240" xmlns="http://www.w3.org/2000/svg">
  <rect width="240" height="240" rx="36" fill="#22153d"/>
  <circle cx="120" cy="120" r="92" fill="#4b2b6f"/>
  <path d="M76 142c16-44 72-58 112-20-8 36-34 58-66 68-26 8-44-8-46-48Z" fill="#ff9f43"/>
  <path d="M88 90c12-24 32-36 60-36 26 0 44 10 58 30-18-10-36-14-54-12-26 4-47 14-64 18Z" fill="#ffd166"/>
  <path d="M90 88c10-14 22-22 38-24 16-2 32 0 46 10-14 8-28 12-42 14-16 2-28 2-42 0Z" fill="#f2b55d"/>
  <path d="M86 116c10-18 22-24 40-26 22-2 36 2 46 8-12 10-26 16-40 18-18 2-34 2-46 0Z" fill="#a65a2e" opacity="0.7"/>
  <ellipse cx="99" cy="112" rx="10" ry="12" fill="#1e1e1e"/>
  <ellipse cx="141" cy="112" rx="10" ry="12" fill="#1e1e1e"/>
  <ellipse cx="99" cy="108" rx="4" ry="5" fill="#fff"/>
  <ellipse cx="141" cy="108" rx="4" ry="5" fill="#fff"/>
  <path d="M108 140c8 8 22 8 30 0" stroke="#fff" stroke-width="4" stroke-linecap="round"/>
  <path d="M74 168c16 12 34 18 46 20 12-2 34-10 46-20" stroke="#ff6b6b" stroke-width="7" stroke-linecap="round"/>
  <path d="M74 96c10-12 20-18 34-24" stroke="#2c1c4d" stroke-width="6" stroke-linecap="round"/>
  <path d="M166 96c-10-12-20-18-34-24" stroke="#2c1c4d" stroke-width="6" stroke-linecap="round"/>
  <path d="M84 118c10-8 18-12 28-14" stroke="#ffb36b" stroke-width="4" stroke-linecap="round"/>
  <path d="M150 118c-10-8-18-12-28-14" stroke="#ffb36b" stroke-width="4" stroke-linecap="round"/>
  <path d="M82 132c12 8 20 12 38 14" stroke="#ffd7a6" stroke-width="4" stroke-linecap="round"/>
  <path d="M158 132c-12 8-20 12-38 14" stroke="#ffd7a6" stroke-width="4" stroke-linecap="round"/>
  <circle cx="120" cy="120" r="6" fill="#ffdca8" opacity="0.55"/>
  <path d="M120 70c10 10 12 18 10 32" stroke="#f6c367" stroke-width="4" stroke-linecap="round" opacity="0.5"/>
  <path d="M120 70c-8 10-10 18-8 32" stroke="#f6c367" stroke-width="4" stroke-linecap="round" opacity="0.5"/>
</svg>
