<svg width="240" height="240" viewBox="0 0 240 240" xmlns="http://www.w3.org/2000/svg">
  <rect width="240" height="240" rx="36" fill="#2b2254"/>
  <circle cx="120" cy="120" r="90" fill="#5744a6"/>
  <path d="M92 142c15-36 46-54 82-40-9 26-28 43-50 53-21 9-37 4-32-13Z" fill="#ffde59"/>
  <path d="M86 94c9-17 23-28 42-31 25-4 46 4 64 20-17-8-34-10-50-9-24 2-41 10-56 20Z" fill="#f7f0ff"/>
  <ellipse cx="96" cy="112" rx="9" ry="12" fill="#1e1e1e"/>
  <ellipse cx="142" cy="112" rx="9" ry="12" fill="#1e1e1e"/>
  <ellipse cx="96" cy="108" rx="4" ry="5" fill="#fff"/>
  <ellipse cx="142" cy="108" rx="4" ry="5" fill="#fff"/>
  <path d="M105 141c10 6 24 6 34 0" stroke="#fff" stroke-width="4" stroke-linecap="round"/>
  <path d="M76 172c16 12 31 18 44 20 16-2 35-9 44-20" stroke="#ffe27a" stroke-width="7" stroke-linecap="round"/>
  <path d="M74 94c10-12 20-18 32-24" stroke="#3d3170" stroke-width="6" stroke-linecap="round"/>
  <path d="M164 94c-10-12-20-18-32-24" stroke="#3d3170" stroke-width="6" stroke-linecap="round"/>
</svg>