<svg width="240" height="240" viewBox="0 0 240 240" xmlns="http://www.w3.org/2000/svg">
  <rect width="240" height="240" rx="36" fill="#151c41"/>
  <circle cx="120" cy="120" r="92" fill="#3b5ea8"/>
  <path d="M94 64c12-14 24-20 40-20 18 0 32 8 44 24-14 0-28 8-42 20-14 11-28 24-42 38-17-14-30-31-38-49 13-8 24-11 38-13Z" fill="#ffe66d"/>
  <path d="M78 138c16-34 48-52 86-44-14 28-42 44-72 54-20 7-31 2-14-10Z" fill="#8ac6ff"/>
  <path d="M92 86c10-14 20-22 34-26 16-5 32-5 47 0-12 12-24 18-36 22-14 5-26 8-45 4Z" fill="#d8b852"/>
  <path d="M86 116c10-18 22-24 40-26 22-2 36 2 46 8-12 10-26 16-40 18-18 2-34 2-46 0Z" fill="#5e81c7" opacity="0.7"/>
  <ellipse cx="96" cy="112" rx="10" ry="12" fill="#1f1f1f"/>
  <ellipse cx="144" cy="112" rx="10" ry="12" fill="#1f1f1f"/>
  <ellipse cx="96" cy="108" rx="4" ry="5" fill="#fff"/>
  <ellipse cx="144" cy="108" rx="4" ry="5" fill="#fff"/>
  <path d="M102 142c10 7 24 7 34 0" stroke="#ffe66d" stroke-width="4" stroke-linecap="round"/>
  <path d="M74 162c14 12 30 18 46 20 16-2 34-8 46-20" stroke="#c8f2ff" stroke-width="6" stroke-linecap="round"/>
  <path d="M78 118c10-8 18-12 28-14" stroke="#6ecfff" stroke-width="4" stroke-linecap="round"/>
  <path d="M154 118c-10-8-18-12-28-14" stroke="#6ecfff" stroke-width="4" stroke-linecap="round"/>
  <path d="M82 132c12 8 20 12 38 14" stroke="#a8e8ff" stroke-width="4" stroke-linecap="round"/>
  <path d="M158 132c-12 8-20 12-38 14" stroke="#a8e8ff" stroke-width="4" stroke-linecap="round"/>
  <circle cx="120" cy="120" r="6" fill="#fff4a3" opacity="0.55"/>
  <path d="M120 70c10 10 12 18 10 32" stroke="#f8e7a8" stroke-width="4" stroke-linecap="round" opacity="0.5"/>
  <path d="M120 70c-8 10-10 18-8 32" stroke="#f8e7a8" stroke-width="4" stroke-linecap="round" opacity="0.5"/>
</svg>