<svg width="240" height="240" viewBox="0 0 240 240" xmlns="http://www.w3.org/2000/svg">
  <rect width="240" height="240" rx="36" fill="#12301d"/>
  <circle cx="120" cy="120" r="90" fill="#2f6b3a"/>
  <path d="M84 144c14-44 53-62 92-46-10 30-30 52-58 60-24 8-37 5-34-14Z" fill="#54d26f"/>
  <path d="M82 96c8-18 21-30 44-34 25-4 46 2 64 18-16-8-32-10-48-8-23 2-42 8-60 24Z" fill="#d6ffb7"/>
  <ellipse cx="96" cy="112" rx="9" ry="12" fill="#1e1e1e"/>
  <ellipse cx="142" cy="112" rx="9" ry="12" fill="#1e1e1e"/>
  <ellipse cx="96" cy="108" rx="4" ry="5" fill="#fff"/>
  <ellipse cx="142" cy="108" rx="4" ry="5" fill="#fff"/>
  <path d="M104 142c9 7 22 7 31 0" stroke="#fff" stroke-width="4" stroke-linecap="round"/>
  <path d="M80 168c17 12 39 18 52 20 13-2 35-9 48-20" stroke="#9ff19f" stroke-width="7" stroke-linecap="round"/>
  <path d="M78 90c10-12 19-17 32-22" stroke="#1d3c20" stroke-width="6" stroke-linecap="round"/>
  <path d="M166 90c-10-12-19-17-32-22" stroke="#1d3c20" stroke-width="6" stroke-linecap="round"/>
</svg>